<?xml version="1.0" encoding="utf-8"?>
<svg version="1.1" xmlns:xlink="http://www.w3.org/1999/xlink" width="170px" height="170px" xmlns="http://www.w3.org/2000/svg">
  <defs>
    <pattern id="BGPattern" patternUnits="userSpaceOnUse" alignment="0 0" imageRepeat="None" />
    <mask fill="white" id="Clip47">
      <path d="M 85 0  C 131.94420373561744 0  170 38.05579626438256  170 85  C 170 85.27776943476017  169.99863842601968 85.55553720096474  169.99591532713188 85.83329328752168  L 85 85  L 85 0  Z " fill-rule="evenodd" />
    </mask>
  </defs>
  <g transform="matrix(1 0 0 1 -506 -261 )">
    <path d="M 85 0  C 131.94420373561744 0  170 38.05579626438256  170 85  C 170 85.27776943476017  169.99863842601968 85.55553720096474  169.99591532713188 85.83329328752168  L 85 85  L 85 0  Z " fill-rule="nonzero" fill="rgba(217, 0, 27, 1)" stroke="none" transform="matrix(1 0 0 1 506 261 )" class="fill" />
    <path d="M 85 0  C 131.94420373561744 0  170 38.05579626438256  170 85  C 170 85.27776943476017  169.99863842601968 85.55553720096474  169.99591532713188 85.83329328752168  L 85 85  L 85 0  Z " stroke-width="0" stroke-dasharray="0" stroke="rgba(217, 0, 27, 1)" fill="none" transform="matrix(1 0 0 1 506 261 )" class="stroke" mask="url(#Clip47)" />
  </g>
</svg>